<?xml version="1.0" encoding="utf-8"?>
<!-- Generator: Adobe Illustrator 24.1.2, SVG Export Plug-In . SVG Version: 6.00 Build 0)  -->
<svg version="1.1" id="Grupo_9" xmlns="http://www.w3.org/2000/svg" xmlns:xlink="http://www.w3.org/1999/xlink" x="0px" y="0px"
	 viewBox="0 0 36.4 30.8" style="enable-background:new 0 0 36.4 30.8;" xml:space="preserve">
<style type="text/css">
	.st0{fill:#EFEFEF;}
</style>
<g>
	<path class="st0" d="M15.3,5.5c0.4-0.4,0.5-1,0.1-1.4c-0.4-0.4-1-0.5-1.4-0.1l-0.2,0.2c-0.4,0.4-0.5,1-0.1,1.4
		c0.2,0.2,0.5,0.3,0.8,0.3c0.2,0,0.5-0.1,0.7-0.3L15.3,5.5z"/>
	<path class="st0" d="M8.9,8.1L8.7,8.2c-0.4,0.4-0.5,1-0.1,1.4C8.9,9.9,9.1,10,9.4,10c0.2,0,0.5-0.1,0.7-0.3l0.2-0.2
		c0.4-0.4,0.5-1,0.1-1.4C10,7.8,9.3,7.7,8.9,8.1z"/>
	<path class="st0" d="M15.5,8.2l-0.2,0.2c-0.4,0.4-0.5,1-0.1,1.4c0.2,0.2,0.5,0.3,0.8,0.3c0.2,0,0.5-0.1,0.7-0.3l0.2-0.2
		c0.4-0.4,0.5-1,0.1-1.4C16.6,7.8,16,7.8,15.5,8.2z"/>
	<path class="st0" d="M22.2,4.7l0-0.2c0-0.6-0.4-1-0.9-1.1s-1,0.4-1.1,0.9l0,0.2c0,0.6,0.4,1,0.9,1.1c0,0,0.1,0,0.1,0
		C21.7,5.7,22.2,5.2,22.2,4.7z"/>
	<path class="st0" d="M28.1,6.5c-0.3-0.4-1-0.5-1.4-0.2c-0.4,0.3-0.5,1-0.2,1.4l0.1,0.2c0.2,0.3,0.5,0.4,0.8,0.4
		c0.2,0,0.4-0.1,0.6-0.2c0.4-0.3,0.5-1,0.2-1.4L28.1,6.5z"/>
	<path class="st0" d="M22.9,8c-0.6,0-1,0.4-1.1,0.9l0,0.2c0,0.6,0.4,1,0.9,1.1c0,0,0.1,0,0.1,0c0.5,0,1-0.4,1-0.9l0-0.2
		C23.9,8.5,23.4,8,22.9,8z"/>
	<path class="st0" d="M33.2,12.3v-1.5c0-6-4.9-10.8-10.8-10.8h-7.8C8.6,0,3.8,4.9,3.8,10.8v1.3C2.2,12.5,1,14,1,15.7v0.2
		c0,1.7,1.2,3.1,2.8,3.5v1.8c0,0.2,0,0.4,0.1,0.7V22c0,4.9,3.9,8.8,8.8,8.8h11.8c4.9,0,8.8-3.9,8.8-8.8v-2.8
		c1.3-0.5,2.2-1.8,2.2-3.3v-0.2C35.4,14.2,34.5,12.9,33.2,12.3z M5.8,10.8C5.8,6,9.7,2,14.6,2h7.8c4.8,0,8.8,3.9,8.8,8.8v1.2H5.8
		V10.8z M31.2,22c0,0.3-0.2,0.5-0.3,0.5c-0.1,0.1-0.3,0.2-0.6,0c-0.1-0.1-0.2-0.1-0.3-0.2c-0.7-0.5-1.6-1-3.3-1
		c-1.7,0-2.6,0.6-3.3,1c-0.6,0.4-1.1,0.7-2.2,0.7s-1.6-0.3-2.2-0.7c-0.7-0.5-1.6-1-3.3-1c-1.7,0-2.6,0.6-3.3,1
		c-0.6,0.4-1.1,0.7-2.2,0.7c-1.1,0-1.6-0.3-2.2-0.7c-0.5-0.3-1.1-0.7-2-0.9c-0.1,0-0.2-0.1-0.2-0.2c0,0,0,0,0,0c0,0,0-0.1,0-0.1
		v-1.7h25.4V22z M24.4,28.8H12.6c-3.2,0-5.9-2.2-6.6-5.2C6.4,23.7,6.7,23.8,7,24c0.7,0.5,1.6,1,3.3,1s2.6-0.6,3.3-1
		c0.6-0.4,1.1-0.7,2.2-0.7s1.6,0.3,2.2,0.7c0.7,0.5,1.6,1,3.3,1c1.7,0,2.6-0.6,3.3-1c0.6-0.4,1.1-0.7,2.2-0.7c1.1,0,1.6,0.3,2.2,0.7
		c0.1,0.1,0.2,0.1,0.3,0.2c0.4,0.3,0.9,0.4,1.4,0.4C29.6,27,27.2,28.8,24.4,28.8z M33.4,15.9c0,0.9-0.7,1.6-1.6,1.6H4.6
		c-0.9,0-1.6-0.7-1.6-1.6v-0.2c0-0.9,0.7-1.6,1.6-1.6h27.2c0.9,0,1.6,0.7,1.6,1.6V15.9z"/>
</g>
</svg>
