<svg id="Grupo_9" data-name="Grupo 9" xmlns="http://www.w3.org/2000/svg" width="36.43" height="30.786" viewBox="0 0 36.43 30.786">
  <path id="Trazado_54" data-name="Trazado 54" d="M1080.955,76.666a2.749,2.749,0,0,0,.917-1.731c.7-4.873-3.527-9.7-7.468-11.874a20.9,20.9,0,0,0-15.339-2.363,13.952,13.952,0,0,0-7.784,5.272c-1.716,2.1-3.667,4.878-3.7,7.719-.009.882.19,2.647.816,3.266a1.972,1.972,0,0,0,.192.144c-1.152.745-2.623,2.178-1.9,3.46a1.76,1.76,0,0,0,1.692.671,2.664,2.664,0,0,0,.768-.232,5.178,5.178,0,0,0,.565,3.267,2.43,2.43,0,0,0-2.059,1.311c-.411,1.078-.09,3.575.894,4.335a3.431,3.431,0,0,0,1.771.416c1.426.177,2.819.371,4.26.411,3.282.088,6.566.181,9.851.191q4.965.016,9.927-.2c1.915-.084,4.671.022,6.362-1.138,1.182-.811,1.352-2.6.982-3.9a2.471,2.471,0,0,0-2.315-1.85,2.828,2.828,0,0,0,.848-3.148.983.983,0,0,0,.448.144,2.66,2.66,0,0,0,1.861-.994C1083.634,78.476,1082.188,77.336,1080.955,76.666ZM1049,71.444a16.824,16.824,0,0,1,7.5-8.919,18.525,18.525,0,0,1,10.475-1.36c4.682.754,9.84,3.556,12.343,7.671a11.229,11.229,0,0,1,1.65,5c.161,2.831-2.767,3.115-4.973,3.265-3.627.246-7.244.215-10.875.161-3.357-.03-6.717-.032-10.074-.093-1.648-.029-5.08.3-6.165-1.183C1048.041,74.822,1048.6,72.6,1049,71.444Zm31.844,14.48a2.993,2.993,0,0,1-.576,2.9c-.959.806-3.016.856-4.192.935-3.871.261-7.773.3-11.651.284-3.581-.012-7.191-.023-10.767-.224-1.521-.085-4.449.06-5.034-1.577-.685-1.917.366-3.054,2.191-3.2a9.267,9.267,0,0,0,2.174.157,132.4,132.4,0,0,0,13.266.172c2.27-.148,4.521-.356,6.8-.368,1.71-.009,3.37.246,4.987-.376C1079.165,84.645,1080.348,84.567,1080.848,85.924Zm-8.19-1.8c-2.786.032-5.549.375-8.332.45-2.61.07-5.222-.04-7.83-.134q-1.924-.07-3.848-.137c-2.216-.078-2.783-1.489-2.6-3.458.793.129.732.753,1.2,1.318,1.351,1.625,3.438.423,4.7-.571.886-.7,1.389-1.123,2.526-.568a13.168,13.168,0,0,0,1.176.73c1,.37,1.629-.075,2.572-.34,2.364-.663,2.292-.237,4.053.625a5.715,5.715,0,0,0,1.4.493,4.785,4.785,0,0,0,3.364-.56c1.335-.74,1.645-1.476,3.578-.846.354.116.653.39,1.015.5a2.054,2.054,0,0,0,2.085-.362c.541-.419.823-.811,1.434-.858C1081.388,84.46,1074.721,84.1,1072.659,84.123Zm7.454-4.453c-.547-.123-.866-.563-1.488-.416-.45.107-.678.592-1.025.846a2.06,2.06,0,0,1-2.078.5c-.357-.1-.684-.394-1.044-.513-1.613-.53-2.524.363-3.885,1.116-1.728.954-3.288.326-4.865-.543a3.665,3.665,0,0,0-2.134-.63c-1.032.081-1.807.615-2.875.673-1.406.076-1.422-.538-2.594-.86s-1.929.469-2.8,1.119a2.057,2.057,0,0,1-2.327.557c-1.717-.318-.919-.221-1.684-1.116a1.625,1.625,0,0,0-.817-.552c-.612-.142-1.107.365-1.688.382-2.565.077-.3-2.113.754-2.676a15.909,15.909,0,0,0,3.233.407c4.084.3,8.237.138,12.331.176,3.748.056,7.49.092,11.233-.187a11.041,11.041,0,0,0,3.741-.737c.42.2,1.633.8,1.768,1.255C1082.181,79.533,1080.8,79.824,1080.113,79.67Z" transform="translate(-1046.498 -60.143)" fill="#20272b"/>
  <path id="Trazado_55" data-name="Trazado 55" d="M1055.359,81.988c.567-.023.57-.908,0-.884-.988.042-2.825.2-2.655-1.245a5.189,5.189,0,0,1,1.484-2.681c.392-.412-.233-1.039-.625-.625-.894.942-2.133,2.76-1.826,4.161C1052.041,82.1,1054.328,82.031,1055.359,81.988Z" transform="translate(-1048.41 -66.137)" fill="#20272b"/>
  <path id="Trazado_56" data-name="Trazado 56" d="M1060.514,84.737a.442.442,0,0,0,0-.884A.442.442,0,0,0,1060.514,84.737Z" transform="translate(-1051.503 -68.876)" fill="#20272b"/>
  <path id="Trazado_57" data-name="Trazado 57" d="M1063.541,66.423a.453.453,0,0,0,.442-.442l.059-.485a.445.445,0,0,0-.442-.442.453.453,0,0,0-.442.442q-.029.243-.059.485A.445.445,0,0,0,1063.541,66.423Z" transform="translate(-1052.612 -61.952)" fill="#20272b"/>
  <path id="Trazado_58" data-name="Trazado 58" d="M1070.978,65.182a2.035,2.035,0,0,1,.442-.265c.515-.239.067-1-.447-.764a2.845,2.845,0,0,0-.62.4C1069.912,64.918,1070.542,65.541,1070.978,65.182Z" transform="translate(-1055.229 -61.604)" fill="#20272b"/>
  <path id="Trazado_59" data-name="Trazado 59" d="M1078.426,64.828c.512.243.961-.519.447-.764a4.653,4.653,0,0,1-.689-.4c-.467-.328-.909.438-.447.763A4.627,4.627,0,0,0,1078.426,64.828Z" transform="translate(-1057.932 -61.41)" fill="#20272b"/>
  <path id="Trazado_60" data-name="Trazado 60" d="M1083.528,66.679a.689.689,0,0,1,.363-.192c.555-.128.32-.98-.235-.853a1.558,1.558,0,0,0-.753.419C1082.5,66.454,1083.121,67.079,1083.528,66.679Z" transform="translate(-1059.858 -62.161)" fill="#20272b"/>
  <path id="Trazado_61" data-name="Trazado 61" d="M1074.916,70.634c.358.442.98-.187.625-.625a2.438,2.438,0,0,0-.26-.275c-.421-.382-1.048.243-.625.625A2.449,2.449,0,0,1,1074.916,70.634Z" transform="translate(-1056.818 -63.632)" fill="#20272b"/>
  <path id="Trazado_62" data-name="Trazado 62" d="M1066.484,70.368a1.369,1.369,0,0,1,.4-.308c.5-.264.058-1.027-.447-.764a2.079,2.079,0,0,0-.577.446C1065.477,70.163,1066.1,70.79,1066.484,70.368Z" transform="translate(-1053.585 -63.494)" fill="#20272b"/>
  <path id="Trazado_63" data-name="Trazado 63" d="M1081.1,70.607c.505.259.953-.5.446-.764a1.039,1.039,0,0,1-.433-.381c-.3-.479-1.07-.036-.764.446A1.925,1.925,0,0,0,1081.1,70.607Z" transform="translate(-1058.939 -63.5)" fill="#20272b"/>
  <path id="Trazado_64" data-name="Trazado 64" d="M1059.415,70.094a.349.349,0,0,1,.134-.258c.464-.323.022-1.09-.447-.764a1.21,1.21,0,0,0-.54.787C1058.46,70.416,1059.311,70.654,1059.415,70.094Z" transform="translate(-1050.938 -63.403)" fill="#20272b"/>
  <path id="Trazado_65" data-name="Trazado 65" d="M1087.481,69.282c.435.362,1.063-.261.625-.625l-.394-.329c-.435-.362-1.064.261-.625.625Z" transform="translate(-1061.393 -63.117)" fill="#20272b"/>
</svg>
