<svg xmlns="http://www.w3.org/2000/svg" xmlns:xlink="http://www.w3.org/1999/xlink" width="43" height="39" viewBox="0 0 43 39">
  <defs>
    <clipPath id="clip-path">
      <rect id="Rectángulo_269" data-name="Rectángulo 269" width="43" height="39" transform="translate(34 149)" fill="none" stroke="#707070" stroke-width="1"/>
    </clipPath>
  </defs>
  <g id="Enmascarar_grupo_9" data-name="Enmascarar grupo 9" transform="translate(-34 -149)" clip-path="url(#clip-path)">
    <g id="Grupo_473" data-name="Grupo 473" transform="translate(-5.449 -6.24)">
      <path id="_0280-label" data-name="0280-label" d="M26.742,27.812H3.209A3.213,3.213,0,0,1,0,24.6V3.209A3.213,3.213,0,0,1,3.209,0H26.742a6.209,6.209,0,0,1,4.33,2.028l7.958,9.55a3.728,3.728,0,0,1,0,4.657l-7.958,9.55a6.2,6.2,0,0,1-4.33,2.028ZM2.254,1.471a1.07,1.07,0,0,0-1.07,1.07l.286,23.017a1.07,1.07,0,0,0,1.07,1.07H26.074c.858,0,3.76-.885,4.31-1.544l7.958-9.55c.426-.511.14-3.031-.286-3.54L30.1,2.443a4.17,4.17,0,0,0-2.687-1.258Z" transform="matrix(0.819, -0.574, 0.574, 0.819, 39.263, 172.234)" fill="#20272b"/>
      <text id="_15_" data-name="15%" transform="matrix(0.809, -0.588, 0.588, 0.809, 52.449, 186.24)" fill="#20272b" font-size="14" font-family="HelveticaNeue, Helvetica Neue"><tspan x="0" y="0">15%</tspan></text>
    </g>
  </g>
</svg>
