<svg id="Grupo_12" data-name="Grupo 12" xmlns="http://www.w3.org/2000/svg" width="32.817" height="36.749" viewBox="0 0 32.817 36.749">
  <path id="Trazado_76" data-name="Trazado 76" d="M1172.329,60.765c-.622-.335-2.23-1.1-2.973-.776a.979.979,0,0,0-.37.31c-.344-.714-1.267-.624-2.129-.7l-.408-.035c.219-.716.43-1.675-.423-1.977a10.707,10.707,0,0,0-2.077-.206,18.525,18.525,0,0,0-2.174-.38.436.436,0,0,0-.382.219,3.387,3.387,0,0,0-.243,1.162,5.938,5.938,0,0,0-1.188-.138c-.176-.858-.282-2.779-1.407-2.776a13.23,13.23,0,0,0-4.4.587.459.459,0,0,0-.325.426,7.989,7.989,0,0,0,.106,1.169,13.511,13.511,0,0,0-1.794.41c-.205.04-.518.06-.823.107a1.21,1.21,0,0,0-.184-1.023,1.01,1.01,0,0,0-.646-.172c-.515-.035-1.034-.04-1.55-.06-.635-.025-1.64-.28-2.115.278-.512.6-.371,1.936-.348,2.681-.078.018-.152.037-.218.057a.435.435,0,0,0-.309.309,24.55,24.55,0,0,0-.18,3.048c-.192-.771-.38-1.543-.585-2.31-.4-1.487-1.064-1.248-2.495-1.007-1.388.234-2.524.136-2.338,1.7a34.146,34.146,0,0,0,1.37,6.136c-.225.008-.45.011-.675.019-.012,0-.02.007-.032.008a.509.509,0,0,0-.059.015.477.477,0,0,0-.105.03c-.009,0-.018,0-.026.008-.814.426-.687.911-.7,1.764a49.552,49.552,0,0,0,.4,5.23,89.992,89.992,0,0,0,1.48,10.076c.42,1.982.622,6.016,2.9,6.774a20.351,20.351,0,0,0,4.536.411c1.841.119,3.682.072,5.524.009,3.031-.1,6.094.164,9.116-.028,1.976-.126,3.862-.447,4.8-2.364,1.366-2.783,1.713-6.466,2.129-9.5.522-3.8.775-7.631,1.027-11.457a.449.449,0,0,0-.442-.442l-.445-.027c.555-1.767,1.064-3.547,1.5-5.347C1172.9,62.053,1173.288,61.284,1172.329,60.765Zm-4.109.071a5.89,5.89,0,0,1,0,2.247c0,.011,0,.023-.007.033a.455.455,0,0,0-.006.193c0,.015,0,.038,0,.051l-.031,4.805c-.9-.049-1.8-.092-2.7-.135q-.04-2.18.027-4.359c.024-.752,0-1.539.1-2.285.137-1.046.216-1,1.261-.9C1167.407,60.533,1168.011,60.537,1168.22,60.837Zm-3.639,7.151-.436-.021c.154-.546.289-1.1.413-1.649C1164.562,66.875,1164.57,67.432,1164.581,67.987Zm-.186-9.669c.347.036,1.09-.052,1.258.238s-.038.718-.127,1c0,.01,0,.018,0,.028-.459.1-.7.416-.778,1.255-.047.528-.079,1.059-.107,1.591a.392.392,0,0,0-.02.035c-.6,1.785-.849,3.663-1.378,5.468-.624-.026-1.248-.048-1.872-.07a54.8,54.8,0,0,0,.938-8.037,1.324,1.324,0,0,0-.326-1c0-.013.011-.023.013-.037.032-.251.027-.589.085-.871C1162.839,57.979,1163.642,58.242,1164.4,58.319Zm-3.258,3.5a49.786,49.786,0,0,1-.64,5.915.447.447,0,0,0,0,.1c-.915-.03-1.829-.052-2.744-.075l.775-3.784a14.678,14.678,0,0,0,.7-3.446.883.883,0,0,0-.428-.74h0c.032-.792,1.678-.795,2.187-.4C1161.6,59.849,1161.183,61.174,1161.138,61.816Zm-6.242,1.6c.093-.593.173-1.189.251-1.785.039-.294,0-1.024.168-1.25.133-.173.084-.022.424-.093a5.672,5.672,0,0,1,1.807.176c.992.327.549,1.229.379,2.057l-1.054,5.145a.513.513,0,0,0,0,.061c-.937-.02-1.874-.033-2.811-.044C1154.381,66.272,1154.671,64.853,1154.9,63.42Zm3.633-7.073a7.7,7.7,0,0,1,.529,1.873c-.207-.008-.4-.02-.586-.043a.44.44,0,0,0-.426.325,8.218,8.218,0,0,0-.12,1.049c-.467-.037-.971-.005-1.352-.043a7.032,7.032,0,0,0-1.31-.1,3.271,3.271,0,0,0-.375-1.323.463.463,0,0,0,0-.121,6.83,6.83,0,0,1-.15-1.159,9.484,9.484,0,0,1,2.354-.326C1157.553,56.457,1158.053,56.354,1158.528,56.347Zm-4.07,3.611a.425.425,0,0,0,.043.11,2.406,2.406,0,0,0-.091.308c-.532,2.373-.689,4.839-1.235,7.225a.42.42,0,0,0,0,.074c-.328,0-.657-.007-.985-.009-.186-2.147-.459-4.282-.8-6.41a6.787,6.787,0,0,1-.283-1.863c.159-.39.5-.325.954-.416C1153.432,58.705,1154.179,58.357,1154.458,59.958Zm-7.026-1.8c.06-.482.179-.38.568-.394.311-.011.63.024.941.036.478.018.994.086,1.474.062,0,.022,0,.044,0,.066a5.452,5.452,0,0,0-.073.786v0a3.839,3.839,0,0,0,.087,2.094c.375,2.277.68,4.559.88,6.858q-.835,0-1.67,0c.066-1.266.114-2.532.129-3.8.011-.97.3-2.465-.085-3.345-.3-.682-1.376-.835-2.313-.776A11.434,11.434,0,0,1,1147.432,58.155Zm-.9,7.818c.109-1.028.109-2.056.126-3.089.016-1.016-.2-2.567,1.294-2.145.811.229.812.471.929,1.3a12.485,12.485,0,0,1,0,1.826c-.015,1.267-.064,2.534-.129,3.8-.63,0-1.261.017-1.891.026-.128-.515-.253-1.032-.378-1.548A.473.473,0,0,0,1146.533,65.973Zm-4.928-2.119a8.934,8.934,0,0,1-.3-1.721c.028-1.164.646-1.28,1.623-1.311,1.375-.045,1.433.5,1.7,1.553l.434,1.746q.446,1.792.891,3.583-1.654.028-3.309.08A36.824,36.824,0,0,1,1141.605,63.854Zm29.008,12.294c-.392,4.1-.644,9.146-2.407,12.95-1.495,3.225-6.623,2.086-9.535,2.083-3.755,0-7.468.32-11.214-.111-1.2-.137-2.431-.008-3.252-1.2a10.286,10.286,0,0,1-.82-2.906c-.472-1.872-.845-3.767-1.155-5.672-.346-2.127-.606-4.267-.812-6.412-.08-.831-.954-5.514-.205-6.174,8.154-.292,16.306-.212,24.455.2q1.681.085,3.361.184c1.515.089,1.876-.165,2.03,1.347A30.868,30.868,0,0,1,1170.613,76.149Zm.544-10.871c-.281,1.009-.584,2.011-.9,3.01l-1.2-.07q.013-1.976.026-3.951c0-.411.028-.851.052-1.3a4.632,4.632,0,0,1,.507-1.935c.315-.306.973.018,1.309.181.6.293.936.481.933,1.261A12.11,12.11,0,0,1,1171.157,65.277Z" transform="translate(-1140.128 -55.468)" fill="#20272b"/>
  <path id="Trazado_77" data-name="Trazado 77" d="M1160.316,82.918c-2.241.084-4.565.025-6.426,1.473a6.888,6.888,0,0,0-2.618,5.3c-.007,5.6,7.379,5.775,11.336,5.688,2.128-.048,4.27-.426,5.673-2.168,1.077-1.338,2.088-3.605,1.7-5.34C1169.084,83.848,1163.707,82.8,1160.316,82.918Zm7.812,8.941c-1.2,2.122-3.243,2.585-5.521,2.636-3.38.075-9.188.3-10.212-3.839a5.375,5.375,0,0,1,2.1-5.578c1.711-1.289,3.786-1.2,5.825-1.275,2.8-.1,5.318.324,7.46,2.316C1169.514,87.736,1169.223,89.926,1168.129,91.859Z" transform="translate(-1144.232 -65.575)" fill="#20272b"/>
  <path id="Trazado_78" data-name="Trazado 78" d="M1155.931,91.416c.072-.563-.813-.558-.884,0a4.743,4.743,0,0,0,.96,3.871c.374.431,1-.2.625-.625A3.982,3.982,0,0,1,1155.931,91.416Z" transform="translate(-1145.6 -68.553)" fill="#20272b"/>
  <path id="Trazado_79" data-name="Trazado 79" d="M1156.2,89.172a.442.442,0,0,0,0-.884A.442.442,0,0,0,1156.2,89.172Z" transform="translate(-1145.892 -67.556)" fill="#20272b"/>
</svg>
