<svg id="Grupo_7" data-name="Grupo 7" xmlns="http://www.w3.org/2000/svg" width="35.589" height="32.778" viewBox="0 0 35.589 32.778">
  <path id="Trazado_37" data-name="Trazado 37" d="M980.209,74.844a3.442,3.442,0,0,0-1.109-4.619c-1.756-1.066-3.6.3-4.294,1.931-.525,1.116-.45,2.968.754,3.624C976.822,76.468,979.384,76.081,980.209,74.844Zm-.888-.3a3.755,3.755,0,0,1-3.1.54c-.918-.324-1.023-1.694-.651-2.485.446-1.042,1.454-2.246,2.759-1.78S980.378,73.508,979.321,74.548Z" transform="translate(-963.141 -62.31)" fill="#333"/>
  <path id="Trazado_38" data-name="Trazado 38" d="M970.537,88.05a2.676,2.676,0,0,0-2.37,2.577.4.4,0,0,0-.028.2.42.42,0,0,0,.026.192c.215,1.4,1.229,2.8,2.819,2.511a3.266,3.266,0,0,0,2.417-3.42A2.46,2.46,0,0,0,970.537,88.05Zm.837,4.412c-1.233.713-2.232-.465-2.351-1.634a1.831,1.831,0,0,1,1.286-1.819,1.7,1.7,0,0,1,2.124.848A2.431,2.431,0,0,1,971.375,92.462Z" transform="translate(-960.798 -69.006)" fill="#333"/>
  <path id="Trazado_39" data-name="Trazado 39" d="M991.741,84.557A2.585,2.585,0,0,0,990.173,81a3.018,3.018,0,0,0-3.76,1.862.2.2,0,0,1-.045.105C985.192,86.28,990.545,87.48,991.741,84.557Zm-2.386-2.84a1.752,1.752,0,0,1,1.637,2.321c-.673,2.12-4.557,1.52-3.781-.8A2.243,2.243,0,0,1,989.355,81.717Z" transform="translate(-967.451 -66.355)" fill="#333"/>
  <path id="Trazado_40" data-name="Trazado 40" d="M988.728,74.53c.491-.063,1.3.519,1.171,1.069s.727.791.853.235a1.976,1.976,0,0,0-2.024-2.189.458.458,0,0,0-.442.442A.444.444,0,0,0,988.728,74.53Z" transform="translate(-968.22 -63.705)" fill="#333"/>
  <path id="Trazado_41" data-name="Trazado 41" d="M980.63,85.331c.509.248.958-.514.446-.764a.838.838,0,0,1-.49-.411.5.5,0,0,1,.117-.6c.426-.38-.2-1-.625-.625a1.359,1.359,0,0,0-.377,1.36A1.609,1.609,0,0,0,980.63,85.331Z" transform="translate(-965.039 -67.086)" fill="#333"/>
  <path id="Trazado_42" data-name="Trazado 42" d="M998.289,83.116c.512.243.961-.52.446-.764a1.05,1.05,0,0,1-.309-1.658c.327-.467-.44-.91-.764-.447A1.915,1.915,0,0,0,998.289,83.116Z" transform="translate(-971.53 -66.069)" fill="#333"/>
  <path id="Trazado_43" data-name="Trazado 43" d="M965.883,97.3c-.421.123-1.117-.071-.98-.639.134-.553-.719-.789-.853-.235a1.552,1.552,0,0,0,2.068,1.726A.443.443,0,0,0,965.883,97.3Z" transform="translate(-959.277 -71.983)" fill="#333"/>
  <path id="Trazado_44" data-name="Trazado 44" d="M970.888,80.759c.326.066.5.169.544.524a.693.693,0,0,1-.356.778c-.536.183-.306,1.037.235.853a1.54,1.54,0,0,0,1.006-1.631,1.416,1.416,0,0,0-1.193-1.376C970.567,79.8,970.33,80.647,970.888,80.759Z" transform="translate(-961.694 -66.011)" fill="#333"/>
  <path id="Trazado_45" data-name="Trazado 45" d="M981.111,90.684a1.422,1.422,0,0,0-.959,1.44c.037.565.922.569.884,0a.561.561,0,0,1,.44-.632.66.66,0,0,1,.808.175c.4.41,1.021-.215.625-.625A1.541,1.541,0,0,0,981.111,90.684Z" transform="translate(-965.222 -69.933)" fill="#333"/>
  <path id="Trazado_46" data-name="Trazado 46" d="M991.974,72.338c-.491-3.121-2.572-5.122-4.881-7.089a29.8,29.8,0,0,0-8.023-5.229c-2.517-1.039-6.352-2.584-9.161-1.959a3,3,0,0,0-1.914,4.028c-1.119,3.623-3.251,6.846-4.729,10.324-1.706,4.011-3.458,7.978-5.354,11.9-.425.88-1.717,2.6-1.316,3.738a.44.44,0,0,0,.009.069,2.991,2.991,0,0,0,3.419,2.059c3.033-.634,6.175-2.344,9-3.676.054.592-.12,1.194.471,1.7,1.086.928,1.748-.168,1.887-1.175a6.2,6.2,0,0,0-.046-1.316.377.377,0,0,0,.089-.015l1.769-.687c0,.3-.035.6-.032.867a17.75,17.75,0,0,0,.126,2.229c.164,1.185.845,3.306,2.438,2.342,1.921-1.164.973-4.587.953-6.829,3.812-2.009,7.749-3.783,11.546-5.814C990.675,76.5,992.65,75.352,991.974,72.338ZM975.06,59.592A27.908,27.908,0,0,1,982,62.452c3.019,1.79,6.978,4.711,8.531,8.194a1.957,1.957,0,0,0-1.279.062,2.779,2.779,0,0,0-1.718,1.927c-1.562-2.681-4.508-4.523-7.029-6.2A27.864,27.864,0,0,0,968.777,61.7C967.346,58.014,973.232,59.095,975.06,59.592ZM958.277,88.848a13.408,13.408,0,0,0,1.786-.613c1.745-.58,3.521-1.145,5.217-1.86.882-.371,2.6-1.554,3.4-.685C966.752,86.636,960.651,90.075,958.277,88.848Zm13-4.036a2.114,2.114,0,0,1,.159-.972c.428-.827,1.211-.308,1.562.3Zm4.216,4.592c-.553.2-1.14-.673-1.274-1a4.629,4.629,0,0,1-.136-1.288c-.054-.829,0-1.661-.035-2.488-.066-1.383-.783-3.007-2.475-2.271-1.448.629-1.006,2.351-1.032,3.619-.013.608-.131,2.027-.75.7-.117-.252.039-.644-.016-.922a1.484,1.484,0,0,0-.828-1.207c-1.5-.685-4.053,1.054-5.382,1.537s-4.16,2.049-5.489,1.442c-.867-.4-.515-.457-.124-1.265q.451-.933.9-1.867,2.636-5.467,4.975-11.053c1.522-3.634,3.723-7.007,4.935-10.764a26.3,26.3,0,0,1,10.673,4.213c2.9,1.862,6.714,4.127,7.913,7.542-2.855,1.845-5.817,3.388-8.767,5.057-2.389,1.351-2.859,2.9-2.707,5.579C975.907,85.56,976.279,89.121,975.491,89.4Zm9.07-10.77c-2.611,1.284-5.211,2.591-7.788,3.942.01-.043.016-.092.028-.132.628-2.038,3.246-2.746,4.936-3.654,2.177-1.169,4.273-2.515,6.338-3.869a.417.417,0,0,0,.292-.519,2.313,2.313,0,0,1,1.038-2.793c.928-.466,1.47.112,1.716.963C991.859,75.863,986.916,77.478,984.561,78.635Z" transform="translate(-956.519 -57.916)" fill="#333"/>
  <path id="Trazado_47" data-name="Trazado 47" d="M982.284,61.894a18.79,18.79,0,0,1,6.142,2.389.442.442,0,0,0,.446-.763,19.363,19.363,0,0,0-6.353-2.479C981.962,60.935,981.724,61.787,982.284,61.894Z" transform="translate(-965.891 -59.063)" fill="#333"/>
  <path id="Trazado_48" data-name="Trazado 48" d="M994.808,67.318a.442.442,0,0,0,0-.884A.442.442,0,0,0,994.808,67.318Z" transform="translate(-970.464 -61.053)" fill="#333"/>
</svg>
