<svg id="Grupo_6" data-name="Grupo 6" xmlns="http://www.w3.org/2000/svg" width="34.332" height="35.53" viewBox="0 0 34.332 35.53">
  <path id="Trazado_24" data-name="Trazado 24" d="M809.165,65.515c-.729-4.811-3.932-9.093-9.2-9.142-2.412-.023-5.475,1.675-7.35,3.082A12.841,12.841,0,0,0,788.75,65.2a31.944,31.944,0,0,1-2.313,4.829,11.423,11.423,0,0,0-1.826,3.727,4.3,4.3,0,0,0,.514,3.1c-.906.972-1.8,1.963-2.723,2.912a5.5,5.5,0,0,1-2.27,1.67,10.394,10.394,0,0,1-1.983.308,3.408,3.408,0,0,0-2.945,1.749A2.918,2.918,0,0,0,776,87a3.129,3.129,0,0,0,3.06.871,5.264,5.264,0,0,0,.164,1.3,5.392,5.392,0,0,0,1.051,1.738,2.838,2.838,0,0,0,3.616.615,3.438,3.438,0,0,0,2.21-3.08c.034-.538-.094-1.147-.087-1.68a3.951,3.951,0,0,1,1.131-2.783c.869-1.032,1.83-2,2.75-2.986a3.949,3.949,0,0,0,3.344.066,19.547,19.547,0,0,0,2.809-1.73,28.582,28.582,0,0,1,4.711-2.263C804.949,75.295,809.922,70.509,809.165,65.515Zm-24.134,20.8c-.081.712.258,1.419.182,2.127a2.837,2.837,0,0,1-2.174,2.476c-3.042.644-2.608-2.165-3.222-3.664a.459.459,0,0,0-.544-.309c-2.966.541-4.853-2.832-1.623-4.234.917-.4,2.117-.069,3.083-.447,1.946-.76,3.5-3.1,4.9-4.658a14.174,14.174,0,0,0,2.277,2.146.505.505,0,0,0,.052.027.392.392,0,0,0,.037.042,12.638,12.638,0,0,0,1.075.74C787.508,82.178,785.292,84.01,785.032,86.314Zm23.137-18.143a14.078,14.078,0,0,1-5.943,7.242c-2.16,1.186-4.552,1.79-6.626,3.15a15.71,15.71,0,0,1-2.337,1.484c-1.871.787-3.29.158-4.781-.97a9.3,9.3,0,0,1-2.683-2.829c-.919-1.845.049-3.616,1.036-5.2a49.475,49.475,0,0,0,3.1-6.4c2.454-5.561,9.715-9.67,15.167-5.467C807.351,60.911,809.021,65.36,808.169,68.171Z" transform="translate(-774.91 -56.373)" fill="#20272b"/>
  <path id="Trazado_25" data-name="Trazado 25" d="M805.3,65.4a.442.442,0,0,0,0,.884A.442.442,0,0,0,805.3,65.4Z" transform="translate(-785.945 -59.698)" fill="#20272b"/>
  <path id="Trazado_26" data-name="Trazado 26" d="M807.34,71.709a.442.442,0,0,0,0,.884A.442.442,0,0,0,807.34,71.709Z" transform="translate(-786.697 -62.021)" fill="#20272b"/>
  <path id="Trazado_27" data-name="Trazado 27" d="M814.739,73.067a.442.442,0,0,0-.884,0l0,.081a.442.442,0,0,0,.884,0Z" transform="translate(-789.254 -62.364)" fill="#20272b"/>
  <path id="Trazado_28" data-name="Trazado 28" d="M811.264,64.912a.442.442,0,0,0,0,.884A.442.442,0,0,0,811.264,64.912Z" transform="translate(-788.143 -59.518)" fill="#20272b"/>
  <path id="Trazado_29" data-name="Trazado 29" d="M814.853,60.809a.442.442,0,0,0,0-.884A.442.442,0,0,0,814.853,60.809Z" transform="translate(-789.465 -57.681)" fill="#20272b"/>
  <path id="Trazado_30" data-name="Trazado 30" d="M818,69.029c-.414-.391-1.04.233-.625.625l.042.039c.413.391,1.04-.233.625-.625Z" transform="translate(-790.5 -60.988)" fill="#20272b"/>
  <path id="Trazado_31" data-name="Trazado 31" d="M819.95,64.128l-.039.042c-.391.413.233,1.04.625.625l.039-.042C820.966,64.34,820.342,63.713,819.95,64.128Z" transform="translate(-791.439 -59.179)" fill="#20272b"/>
  <path id="Trazado_32" data-name="Trazado 32" d="M823.062,71.388a.442.442,0,0,0,0-.884A.442.442,0,0,0,823.062,71.388Z" transform="translate(-792.488 -61.577)" fill="#20272b"/>
  <path id="Trazado_33" data-name="Trazado 33" d="M815.571,78.615a.442.442,0,0,0,0,.884A.442.442,0,0,0,815.571,78.615Z" transform="translate(-789.729 -64.565)" fill="#20272b"/>
  <path id="Trazado_34" data-name="Trazado 34" d="M821.678,76.76l0,.081a.442.442,0,0,0,.884,0l0-.081A.442.442,0,0,0,821.678,76.76Z" transform="translate(-792.135 -63.724)" fill="#20272b"/>
  <path id="Trazado_35" data-name="Trazado 35" d="M793.882,82.39a5.045,5.045,0,0,0-.4,2.955c.088.561.941.323.853-.235a3.968,3.968,0,0,1,.314-2.273C794.881,82.323,794.119,81.873,793.882,82.39Z" transform="translate(-781.725 -65.871)" fill="#20272b"/>
  <path id="Trazado_36" data-name="Trazado 36" d="M795.711,79.1a.442.442,0,0,0,0,.884A.442.442,0,0,0,795.711,79.1Z" transform="translate(-782.414 -64.743)" fill="#20272b"/>
</svg>
